<svg width="13" height="14" viewBox="0 0 13 14" fill="none" xmlns="http://www.w3.org/2000/svg">
<path d="M2.25955 12.4271L2.69509 11.8165L2.25955 12.4271ZM1.58356 11.7634L2.18644 11.3172L1.58356 11.7634ZM11.4164 11.7634L10.8136 11.3172L11.4164 11.7634ZM10.7405 12.4271L11.176 13.0376L10.7405 12.4271ZM10.7405 2.77295L11.176 2.16237L10.7405 2.77295ZM11.4164 3.43664L10.8136 3.88278L11.4164 3.43664ZM2.25955 2.77295L2.69509 3.38352L2.69509 3.38352L2.25955 2.77295ZM1.58356 3.43664L2.18644 3.88278V3.88278L1.58356 3.43664ZM10.9109 9.43694L10.7957 8.69584L10.9109 9.43694ZM8.37095 11.9307L7.63052 11.8113L8.37095 11.9307ZM4.66667 7.45C4.25245 7.45 3.91667 7.78579 3.91667 8.2C3.91667 8.61421 4.25245 8.95 4.66667 8.95V7.45ZM8.33333 8.95C8.74755 8.95 9.08333 8.61421 9.08333 8.2C9.08333 7.78579 8.74755 7.45 8.33333 7.45V8.95ZM7.58333 2.8C7.58333 3.21421 7.91912 3.55 8.33333 3.55C8.74755 3.55 9.08333 3.21421 9.08333 2.8H7.58333ZM9.08333 1C9.08333 0.585786 8.74755 0.25 8.33333 0.25C7.91912 0.25 7.58333 0.585786 7.58333 1H9.08333ZM3.91667 2.8C3.91667 3.21421 4.25245 3.55 4.66667 3.55C5.08088 3.55 5.41667 3.21421 5.41667 2.8H3.91667ZM5.41667 1C5.41667 0.585786 5.08088 0.25 4.66667 0.25C4.25245 0.25 3.91667 0.585786 3.91667 1H5.41667ZM11.9823 9.4L12.7319 9.42616L11.9823 9.4ZM1.01768 5.8L0.268135 5.77384L1.01768 5.8ZM11.9823 5.8L12.7319 5.77384L11.9823 5.8ZM6.5 12.25C5.33784 12.25 4.52538 12.249 3.90099 12.1826C3.28984 12.1176 2.94812 11.997 2.69509 11.8165L1.824 13.0376C2.37417 13.4301 3.00692 13.5959 3.74233 13.6742C4.46449 13.751 5.37066 13.75 6.5 13.75V12.25ZM0.25 7.6C0.25 8.70791 0.248933 9.60019 0.32747 10.3119C0.407648 11.0385 0.578122 11.6655 0.980677 12.2095L2.18644 11.3172C2.00544 11.0726 1.88413 10.7429 1.81842 10.1474C1.75107 9.53703 1.75 8.74193 1.75 7.6H0.25ZM2.69509 11.8165C2.49938 11.6769 2.32783 11.5083 2.18644 11.3172L0.980677 12.2095C1.21622 12.5278 1.50091 12.8072 1.824 13.0376L2.69509 11.8165ZM10.8136 11.3172C10.6722 11.5083 10.5006 11.6769 10.3049 11.8165L11.176 13.0376C11.4991 12.8072 11.7838 12.5278 12.0193 12.2095L10.8136 11.3172ZM10.3049 3.38352C10.5006 3.52313 10.6722 3.69171 10.8136 3.88278L12.0193 2.99051C11.7838 2.67221 11.4991 2.39284 11.176 2.16237L10.3049 3.38352ZM1.824 2.16237C1.50091 2.39285 1.21622 2.67221 0.980677 2.99051L2.18644 3.88278C2.32783 3.69171 2.49938 3.52313 2.69509 3.38352L1.824 2.16237ZM10.7957 8.69584C9.17493 8.94787 7.89059 10.1991 7.63052 11.8113L9.11138 12.0501C9.26547 11.0949 10.032 10.3326 11.0261 10.178L10.7957 8.69584ZM4.66667 8.95H8.33333V7.45H4.66667V8.95ZM11.9823 8.65C11.4534 8.65 11.1022 8.64818 10.7957 8.69584L11.0261 10.178C11.1897 10.1526 11.3994 10.15 11.9823 10.15L11.9823 8.65ZM11.25 7.6C11.25 8.30558 11.2499 8.8831 11.2328 9.37384L12.7319 9.42616C12.7501 8.90368 12.75 8.29713 12.75 7.6H11.25ZM11.2328 9.37384C11.1941 10.482 11.067 10.9747 10.8136 11.3172L12.0193 12.2095C12.5691 11.4665 12.6925 10.555 12.7319 9.42616L11.2328 9.37384ZM9.08333 12.9826C9.08334 12.4088 9.0861 12.2069 9.11138 12.0501L7.63052 11.8113C7.58136 12.1161 7.58334 12.4648 7.58333 12.9826L9.08333 12.9826ZM6.5 13.75C7.21027 13.75 7.82726 13.7501 8.35855 13.7322L8.30812 12.2331C7.80743 12.2499 7.21842 12.25 6.5 12.25V13.75ZM8.35855 13.7322C9.50599 13.6936 10.4253 13.5731 11.176 13.0376L10.3049 11.8165C9.94993 12.0697 9.43912 12.195 8.30812 12.2331L8.35855 13.7322ZM1.75 7.6C1.75 6.89442 1.7501 6.3169 1.76722 5.82616L0.268135 5.77384C0.249903 6.29632 0.25 6.90287 0.25 7.6H1.75ZM1.76722 5.82616C1.80589 4.718 1.93296 4.22532 2.18644 3.88278L0.980677 2.99051C0.430874 3.73349 0.307527 4.64498 0.268135 5.77384L1.76722 5.82616ZM1.01768 6.55H11.9823V5.05H1.01768V6.55ZM12.75 7.6C12.75 6.90287 12.7501 6.29632 12.7319 5.77384L11.2328 5.82616C11.2499 6.3169 11.25 6.89442 11.25 7.6H12.75ZM12.7319 5.77384C12.6925 4.64498 12.5691 3.73349 12.0193 2.99051L10.8136 3.88278C11.067 4.22532 11.1941 4.718 11.2328 5.82616L12.7319 5.77384ZM9.08333 2.8V2.21736H7.58333V2.8H9.08333ZM9.08333 2.21736V1H7.58333V2.21736H9.08333ZM6.5 2.95C7.21842 2.95 7.80743 2.95009 8.30812 2.96693L8.35855 1.46778C7.82726 1.44991 7.21027 1.45 6.5 1.45V2.95ZM8.30812 2.96693C9.43912 3.00498 9.94993 3.13031 10.3049 3.38352L11.176 2.16237C10.4253 1.62691 9.50599 1.50638 8.35855 1.46778L8.30812 2.96693ZM5.41667 2.8V2.21736H3.91667V2.8H5.41667ZM5.41667 2.21736V1H3.91667V2.21736H5.41667ZM6.5 1.45C5.78973 1.45 5.17274 1.44991 4.64145 1.46778L4.69188 2.96693C5.19257 2.95009 5.78158 2.95 6.5 2.95V1.45ZM4.64145 1.46778C3.49401 1.50638 2.57465 1.62691 1.824 2.16237L2.69509 3.38352C3.05007 3.13031 3.56088 3.00498 4.69188 2.96693L4.64145 1.46778Z" fill="white"/>
</svg>
