<svg width="12" height="14" viewBox="0 0 12 14" fill="none" xmlns="http://www.w3.org/2000/svg">
<path d="M2.14504 11.9748L2.58298 11.3659L2.14504 11.9748ZM1.53051 11.3664L2.13515 10.9227L1.53051 11.3664ZM10.4695 11.3664L9.86485 10.9227L10.4695 11.3664ZM9.85496 11.9748L10.2929 12.5837L9.85496 11.9748ZM9.85496 3.1252L10.2929 2.51634L9.85496 3.1252ZM10.4695 3.73359L9.86485 4.17733L10.4695 3.73359ZM2.14504 3.1252L2.58298 3.73406L2.14504 3.1252ZM1.53051 3.73359L2.13515 4.17733L1.53051 3.73359ZM10.0099 9.23386L9.89372 8.49291L10.0099 9.23386ZM7.70087 11.5198L6.96028 11.4013L7.70087 11.5198ZM4.33333 7.35C3.91912 7.35 3.58333 7.68579 3.58333 8.1C3.58333 8.51421 3.91912 8.85 4.33333 8.85V7.35ZM7.66667 8.85C8.08088 8.85 8.41667 8.51421 8.41667 8.1C8.41667 7.68579 8.08088 7.35 7.66667 7.35V8.85ZM6.91667 3.15C6.91667 3.56421 7.25245 3.9 7.66667 3.9C8.08088 3.9 8.41667 3.56421 8.41667 3.15H6.91667ZM8.41667 1.5C8.41667 1.08579 8.08088 0.75 7.66667 0.75C7.25245 0.75 6.91667 1.08579 6.91667 1.5H8.41667ZM3.58333 3.15C3.58333 3.56421 3.91912 3.9 4.33333 3.9C4.74755 3.9 5.08333 3.56421 5.08333 3.15H3.58333ZM5.08333 1.5C5.08333 1.08579 4.74755 0.75 4.33333 0.75C3.91912 0.75 3.58333 1.08579 3.58333 1.5H5.08333ZM10.9839 9.2L11.7335 9.22594L10.9839 9.2ZM1.01607 5.9L0.26652 5.87406L1.01607 5.9ZM10.9839 5.9L11.7335 5.87406L10.9839 5.9ZM6 11.75C4.94187 11.75 4.20791 11.749 3.64513 11.6886C3.09595 11.6297 2.79923 11.5215 2.58298 11.3659L1.7071 12.5837C2.22104 12.9533 2.8102 13.1077 3.48516 13.1801C4.14652 13.251 4.97495 13.25 6 13.25V11.75ZM0.25 7.55C0.25 8.5643 0.24895 9.38588 0.320765 10.0421C0.394165 10.7128 0.550922 11.2992 0.925863 11.8101L2.13515 10.9227C1.97959 10.7107 1.87109 10.4201 1.81186 9.87892C1.75105 9.32324 1.75 8.59805 1.75 7.55H0.25ZM2.58298 11.3659C2.41085 11.2421 2.25978 11.0925 2.13515 10.9227L0.925863 11.8101C1.1439 12.1073 1.4076 12.3682 1.7071 12.5837L2.58298 11.3659ZM9.86485 10.9227C9.74022 11.0925 9.58915 11.2421 9.41702 11.3659L10.2929 12.5837C10.5924 12.3682 10.8561 12.1073 11.0741 11.8101L9.86485 10.9227ZM9.41702 3.73406C9.58915 3.85787 9.74022 4.00752 9.86485 4.17733L11.0741 3.28985C10.8561 2.99274 10.5924 2.73177 10.2929 2.51634L9.41702 3.73406ZM1.7071 2.51634C1.4076 2.73177 1.1439 2.99275 0.925863 3.28985L2.13515 4.17733C2.25978 4.00751 2.41085 3.85787 2.58298 3.73406L1.7071 2.51634ZM9.89372 8.49291C8.38839 8.72895 7.20054 9.89956 6.96028 11.4013L8.44145 11.6383C8.5777 10.7866 9.25424 10.1115 10.1261 9.9748L9.89372 8.49291ZM4.33333 8.85H7.66667V7.35H4.33333V8.85ZM10.9839 8.45C10.5057 8.45 10.1794 8.44811 9.89372 8.49291L10.1261 9.9748C10.2677 9.9526 10.4513 9.95 10.9839 9.95L10.9839 8.45ZM10.25 7.55C10.25 8.1971 10.2499 8.72541 10.2344 9.17406L11.7335 9.22594C11.7501 8.74581 11.75 8.18872 11.75 7.55H10.25ZM10.2344 9.17406C10.1992 10.1895 10.0834 10.6248 9.86485 10.9227L11.0741 11.8101C11.5858 11.1129 11.6977 10.2611 11.7335 9.22594L10.2344 9.17406ZM8.41667 12.4841C8.41667 11.956 8.41936 11.7764 8.44145 11.6383L6.96028 11.4013C6.91469 11.6863 6.91667 12.0115 6.91667 12.4841L8.41667 12.4841ZM6 13.25C6.6453 13.25 7.20759 13.2501 7.69209 13.2337L7.64124 11.7345C7.18758 11.7499 6.65351 11.75 6 11.75V13.25ZM7.69209 13.2337C8.73643 13.1982 9.59194 13.0878 10.2929 12.5837L9.41702 11.3659C9.11286 11.5847 8.66822 11.6997 7.64124 11.7345L7.69209 13.2337ZM1.75 7.55C1.75 6.9029 1.7501 6.37459 1.76562 5.92594L0.26652 5.87406C0.249904 6.35419 0.25 6.91128 0.25 7.55H1.75ZM1.76562 5.92594C1.80076 4.91049 1.91658 4.47516 2.13515 4.17733L0.925863 3.28985C0.414177 3.98708 0.302344 4.83891 0.26652 5.87406L1.76562 5.92594ZM1.01607 6.65H10.9839V5.15H1.01607V6.65ZM11.75 7.55C11.75 6.91128 11.7501 6.35419 11.7335 5.87406L10.2344 5.92594C10.2499 6.37459 10.25 6.9029 10.25 7.55H11.75ZM11.7335 5.87406C11.6977 4.83891 11.5858 3.98708 11.0741 3.28985L9.86485 4.17733C10.0834 4.47516 10.1992 4.91049 10.2344 5.92594L11.7335 5.87406ZM8.41667 3.15V2.61591H6.91667V3.15H8.41667ZM8.41667 2.61591V1.5H6.91667V2.61591H8.41667ZM6 3.35C6.65351 3.35 7.18758 3.35009 7.64124 3.36548L7.69209 1.86634C7.20759 1.84991 6.64529 1.85 6 1.85V3.35ZM7.64124 3.36548C8.66822 3.40031 9.11286 3.51528 9.41702 3.73406L10.2929 2.51634C9.59194 2.01216 8.73643 1.90176 7.69209 1.86634L7.64124 3.36548ZM5.08333 3.15V2.61591H3.58333V3.15H5.08333ZM5.08333 2.61591V1.5H3.58333V2.61591H5.08333ZM6 1.85C5.35471 1.85 4.79241 1.84991 4.30791 1.86634L4.35876 3.36548C4.81242 3.35009 5.34649 3.35 6 3.35V1.85ZM4.30791 1.86634C3.26357 1.90176 2.40806 2.01216 1.7071 2.51634L2.58298 3.73406C2.88714 3.51528 3.33178 3.40031 4.35876 3.36548L4.30791 1.86634Z" fill="#2D264B" fill-opacity="0.3"/>
</svg>
