<svg width="16" height="16" viewBox="0 0 16 16" fill="none" xmlns="http://www.w3.org/2000/svg">
<path d="M7.41999 14.6667C7.74191 14.6663 8.05079 14.5394 8.27999 14.3133L12.5533 10.0333C12.663 9.92432 12.7313 9.78056 12.7467 9.62668L13.3333 3.39335C13.3423 3.2957 13.3296 3.19728 13.2962 3.10509C13.2628 3.0129 13.2095 2.92922 13.14 2.86001C13.0708 2.79055 12.9871 2.73721 12.8949 2.70379C12.8027 2.67037 12.7043 2.6577 12.6067 2.66668L6.37332 3.25335C6.21944 3.26868 6.07568 3.33702 5.96665 3.44668L1.68665 7.72001C1.4599 7.94745 1.33256 8.25552 1.33256 8.57668C1.33256 8.89785 1.4599 9.20591 1.68665 9.43335L6.56665 14.3133C6.7934 14.539 7.10008 14.666 7.41999 14.6667ZM11.42 9.26002L7.41999 13.26L2.71999 8.56001L6.71999 4.56001L11.9267 4.07335L11.42 9.26002Z" fill="#EC441E"/>
<path d="M9 8C8.44772 8 8 7.55228 8 7C8 6.44772 8.44772 6 9 6C9.55228 6 10 6.44772 10 7C10 7.55228 9.55228 8 9 8Z" fill="#EC441E"/>
</svg>
