<svg width="13" height="13" viewBox="0 0 13 13" fill="none" xmlns="http://www.w3.org/2000/svg">
<path d="M6.50001 10.7917C6.91422 10.7917 7.25001 10.4559 7.25001 10.0417C7.25001 9.62746 6.91422 9.29167 6.50001 9.29167L6.50001 10.7917ZM0.833344 9.29167C0.41913 9.29167 0.0833436 9.62746 0.0833435 10.0417C0.0833435 10.4559 0.41913 10.7917 0.833343 10.7917L0.833344 9.29167ZM6.50001 2.20834C6.0858 2.20834 5.75001 2.54412 5.75001 2.95834C5.75001 3.37255 6.0858 3.70834 6.50001 3.70834L6.50001 2.20834ZM12.1667 3.70834C12.5809 3.70834 12.9167 3.37255 12.9167 2.95834C12.9167 2.54413 12.5809 2.20834 12.1667 2.20834L12.1667 3.70834ZM6.50001 9.29167L0.833344 9.29167L0.833343 10.7917L6.50001 10.7917L6.50001 9.29167ZM6.50001 3.70834L12.1667 3.70834L12.1667 2.20834L6.50001 2.20834L6.50001 3.70834ZM0.0833435 2.95834C0.0833435 4.15496 1.05339 5.12501 2.25001 5.12501V3.62501C1.88182 3.62501 1.58334 3.32653 1.58334 2.95834H0.0833435ZM2.25001 5.12501C3.44663 5.12501 4.41668 4.15496 4.41668 2.95834H2.91668C2.91668 3.32653 2.6182 3.62501 2.25001 3.62501V5.12501ZM4.41668 2.95834C4.41668 1.76172 3.44663 0.791672 2.25001 0.791672V2.29167C2.6182 2.29167 2.91668 2.59015 2.91668 2.95834H4.41668ZM2.25001 0.791672C1.05339 0.791672 0.0833435 1.76172 0.0833435 2.95834H1.58334C1.58334 2.59015 1.88182 2.29167 2.25001 2.29167V0.791672ZM12.9167 10.0417C12.9167 8.84505 11.9466 7.875 10.75 7.875L10.75 9.375C11.1182 9.375 11.4167 9.67348 11.4167 10.0417L12.9167 10.0417ZM10.75 7.875C9.55339 7.875 8.58334 8.84505 8.58334 10.0417L10.0833 10.0417C10.0833 9.67348 10.3818 9.375 10.75 9.375L10.75 7.875ZM8.58334 10.0417C8.58334 11.2383 9.55339 12.2083 10.75 12.2083L10.75 10.7083C10.3818 10.7083 10.0833 10.4099 10.0833 10.0417L8.58334 10.0417ZM10.75 12.2083C11.9466 12.2083 12.9167 11.2383 12.9167 10.0417L11.4167 10.0417C11.4167 10.4099 11.1182 10.7083 10.75 10.7083L10.75 12.2083Z" fill="#2D264B"/>
</svg>
