<svg width="12" height="14" viewBox="0 0 12 14" fill="none" xmlns="http://www.w3.org/2000/svg">
<path d="M7.738 11.6832L7.16878 11.1949L7.738 11.6832ZM4.262 11.6832L3.69279 12.1716L4.262 11.6832ZM6 13V12.25V13ZM10.25 5.91797C10.25 6.51125 9.89933 7.37637 9.27258 8.38918C8.66644 9.3687 7.87869 10.3674 7.16878 11.1949L8.30721 12.1716C9.0409 11.3164 9.88415 10.2514 10.5481 9.1785C11.1915 8.13885 11.75 6.96268 11.75 5.91797H10.25ZM4.83122 11.1949C4.12131 10.3674 3.33356 9.3687 2.72742 8.38918C2.10067 7.37637 1.75 6.51125 1.75 5.91797H0.25C0.25 6.96268 0.808534 8.13885 1.45189 9.1785C2.11585 10.2514 2.9591 11.3164 3.69279 12.1716L4.83122 11.1949ZM1.75 5.91797C1.75 3.62771 3.64105 1.75 6 1.75V0.25C2.83611 0.25 0.25 2.77599 0.25 5.91797H1.75ZM6 1.75C8.35895 1.75 10.25 3.62771 10.25 5.91797H11.75C11.75 2.77599 9.16389 0.25 6 0.25V1.75ZM7.16878 11.1949C6.77522 11.6536 6.53959 11.9244 6.33556 12.0938C6.16603 12.2345 6.08353 12.25 6 12.25V13.75C6.52474 13.75 6.93467 13.546 7.29377 13.2478C7.61838 12.9783 7.94762 12.5907 8.30721 12.1716L7.16878 11.1949ZM3.69279 12.1716C4.05238 12.5907 4.38161 12.9783 4.70623 13.2478C5.06533 13.546 5.47526 13.75 6 13.75V12.25C5.91647 12.25 5.83397 12.2345 5.66444 12.0938C5.46041 11.9244 5.22478 11.6536 4.83122 11.1949L3.69279 12.1716ZM3.375 6.14152C3.375 7.56428 4.61512 8.60536 6 8.60536V7.10536C5.31381 7.10536 4.875 6.61181 4.875 6.14152H3.375ZM6 8.60536C7.38488 8.60536 8.625 7.56428 8.625 6.14152H7.125C7.125 6.61181 6.68619 7.10536 6 7.10536V8.60536ZM8.625 6.14152C8.625 4.71876 7.38488 3.67768 6 3.67768V5.17768C6.68619 5.17768 7.125 5.67122 7.125 6.14152H8.625ZM6 3.67768C4.61512 3.67768 3.375 4.71876 3.375 6.14152H4.875C4.875 5.67122 5.31381 5.17768 6 5.17768V3.67768Z" fill="white"/>
</svg>
