<svg width="11" height="14" viewBox="0 0 11 14" fill="none" xmlns="http://www.w3.org/2000/svg">
<path d="M7.0642 11.2929L6.49058 10.8098L6.49058 10.8098L7.0642 11.2929ZM3.9358 11.2929L3.36219 11.7761L3.9358 11.2929ZM5.5 12.5L5.5 11.75L5.5 12.5ZM9.25 6.00814C9.25 6.53708 8.94128 7.31922 8.37834 8.24576C7.83512 9.13985 7.12842 10.0525 6.49058 10.8098L7.63781 11.7761C8.29921 10.9909 9.06041 10.0119 9.66028 9.02462C10.2404 8.06974 10.75 6.98069 10.75 6.00814H9.25ZM4.50942 10.8098C3.87158 10.0525 3.16488 9.13985 2.62166 8.24576C2.05872 7.31922 1.75 6.53708 1.75 6.00814H0.25C0.25 6.98069 0.75956 8.06974 1.33972 9.02462C1.93959 10.0119 2.70079 10.9909 3.36219 11.7761L4.50942 10.8098ZM1.75 6.00814C1.75 3.9313 3.43021 2.25 5.5 2.25V0.75C2.59923 0.75 0.25 3.10543 0.25 6.00814H1.75ZM5.5 2.25C7.56979 2.25 9.25 3.9313 9.25 6.00814H10.75C10.75 3.10543 8.40077 0.75 5.5 0.75V2.25ZM6.49058 10.8098C6.13477 11.2322 5.92693 11.475 5.7489 11.6256C5.60499 11.7473 5.54881 11.75 5.5 11.75L5.5 13.25C5.99863 13.25 6.38563 13.0516 6.7175 12.7709C7.01526 12.5191 7.31578 12.1584 7.63781 11.7761L6.49058 10.8098ZM3.36219 11.7761C3.68422 12.1584 3.98474 12.5191 4.2825 12.7709C4.61437 13.0516 5.00137 13.25 5.5 13.25L5.5 11.75C5.45119 11.75 5.39501 11.7473 5.2511 11.6256C5.07307 11.475 4.86523 11.2322 4.50942 10.8098L3.36219 11.7761ZM3.0625 6.21306C3.0625 7.54454 4.20523 8.53408 5.5 8.53408V7.03408C4.93081 7.03408 4.5625 6.61687 4.5625 6.21306H3.0625ZM5.5 8.53408C6.79477 8.53408 7.9375 7.54454 7.9375 6.21306H6.4375C6.4375 6.61687 6.06919 7.03408 5.5 7.03408V8.53408ZM7.9375 6.21306C7.9375 4.88158 6.79477 3.89204 5.5 3.89204V5.39204C6.06919 5.39204 6.4375 5.80924 6.4375 6.21306H7.9375ZM5.5 3.89204C4.20523 3.89204 3.0625 4.88158 3.0625 6.21306H4.5625C4.5625 5.80924 4.93081 5.39204 5.5 5.39204V3.89204Z" fill="#2D264B" fill-opacity="0.3"/>
</svg>
