<svg width="20" height="20" viewBox="0 0 20 20" fill="none" xmlns="http://www.w3.org/2000/svg">
<path d="M7.65281 17.5L7.90281 17.8333C9.02781 19.3333 11.2778 19.3333 12.4028 17.8333L12.6528 17.5M3.6385 12.958L3.72463 13.1355C4.27777 14.2759 5.43379 15 6.70121 15H13.5519C14.638 15 15.6488 14.4451 16.2319 13.5289C17.0551 12.2355 16.8371 10.5387 15.7137 9.49543L15.6771 9.46146C14.9144 8.75312 14.5389 7.72119 14.668 6.68831L14.7218 6.25753C15.0265 3.81982 13.1258 1.66666 10.6691 1.66666H9.24997C6.79627 1.66666 4.89782 3.81719 5.20216 6.25194L5.26829 6.78098C5.39008 7.75525 5.0342 8.72841 4.31263 9.39426C3.32703 10.3038 3.0532 11.7513 3.6385 12.958Z" stroke="#2D264B" stroke-width="1.5" stroke-linecap="round"/>
</svg>
