<svg width="16" height="4" viewBox="0 0 16 4" fill="none" xmlns="http://www.w3.org/2000/svg">
<path d="M3.2 2C3.2 3.10457 2.48366 4 1.6 4C0.716344 4 0 3.10457 0 2C0 0.89543 0.716344 0 1.6 0C2.48366 0 3.2 0.89543 3.2 2Z" fill="black"/>
<path d="M9.6 2C9.6 3.10457 8.88366 4 8 4C7.11634 4 6.4 3.10457 6.4 2C6.4 0.89543 7.11634 0 8 0C8.88366 0 9.6 0.89543 9.6 2Z" fill="black"/>
<path d="M16 2C16 3.10457 15.2837 4 14.4 4C13.5163 4 12.8 3.10457 12.8 2C12.8 0.89543 13.5163 0 14.4 0C15.2837 0 16 0.89543 16 2Z" fill="black"/>
</svg>
