<svg width="17" height="17" viewBox="0 0 17 17" fill="none" xmlns="http://www.w3.org/2000/svg">
<path d="M13.9887 12.2197C13.6958 11.9268 13.221 11.9268 12.9281 12.2197C12.6352 12.5126 12.6352 12.9875 12.9281 13.2804L13.9887 12.2197ZM15.7613 16.1137C16.0542 16.4066 16.5291 16.4066 16.822 16.1137C17.1149 15.8208 17.1149 15.3459 16.822 15.053L15.7613 16.1137ZM12.9281 13.2804L15.7613 16.1137L16.822 15.053L13.9887 12.2197L12.9281 13.2804ZM7.79169 12.7083C4.68509 12.7083 2.16669 10.1899 2.16669 7.08333H0.666687C0.666687 11.0184 3.85666 14.2083 7.79169 14.2083V12.7083ZM13.4167 7.08333C13.4167 10.1899 10.8983 12.7083 7.79169 12.7083V14.2083C11.7267 14.2083 14.9167 11.0184 14.9167 7.08333H13.4167ZM7.79169 1.45833C10.8983 1.45833 13.4167 3.97673 13.4167 7.08333H14.9167C14.9167 3.1483 11.7267 -0.0416718 7.79169 -0.0416718V1.45833ZM7.79169 -0.0416718C3.85666 -0.0416718 0.666687 3.1483 0.666687 7.08333H2.16669C2.16669 3.97673 4.68509 1.45833 7.79169 1.45833V-0.0416718Z" fill="#2D264B"/>
</svg>
